<svg width="28" height="28" viewBox="0 0 28 28" fill="none" xmlns="http://www.w3.org/2000/svg">
<path d="M12.8125 18.9366L12.5781 24.6866L12.5469 25.0304L5.98438 24.5772C5.60938 24.546 5.26042 24.3819 4.9375 24.0851C4.61458 23.7882 4.36979 23.447 4.20312 23.0616C4.08854 22.7804 4.01302 22.4939 3.97656 22.2022C3.9401 21.9106 3.96094 21.572 4.03906 21.1866C4.11719 20.8012 4.17969 20.5147 4.22656 20.3272C4.27344 20.1397 4.38542 19.8064 4.5625 19.3272C4.73958 18.8481 4.83854 18.572 4.85938 18.4991C5.67188 18.6241 8.32292 18.77 12.8125 18.9366ZM6.76562 9.78037L9.57812 15.7022L7.28125 14.2647C6.625 15.0147 6.04427 15.7673 5.53906 16.5226C5.03385 17.2778 4.65625 17.9288 4.40625 18.4757C4.15625 19.0226 3.95052 19.5147 3.78906 19.9522C3.6276 20.3897 3.53125 20.7179 3.5 20.9366L3.4375 21.2647L0.46875 15.6866C0.291667 15.4158 0.197917 15.1241 0.1875 14.8116C0.177083 14.4991 0.208333 14.2543 0.28125 14.0772L0.40625 13.796C0.770833 13.1397 1.36458 12.1606 2.1875 10.8585L0 9.51474L6.76562 9.78037ZM26 17.8585L23.0625 23.4679C22.9375 23.77 22.7474 24.0121 22.4922 24.1944C22.237 24.3767 22.0104 24.4835 21.8125 24.5147L21.5312 24.5772C20.7917 24.6502 19.651 24.7127 18.1094 24.7647L18.2344 27.3272L14.6406 21.5929L17.9375 15.9366L18.0469 18.6397C19.8177 18.8064 21.2917 18.8325 22.4688 18.7179C23.6458 18.6033 24.5312 18.4314 25.125 18.2022L26 17.8585ZM13.7344 3.42099C13.2448 4.07724 11.8646 6.34287 9.59375 10.2179L4.64062 7.29599L4.34375 7.10849L7.85938 1.54599C8.06771 1.22308 8.38021 0.988702 8.79688 0.842868C9.21354 0.697035 9.63021 0.644952 10.0469 0.686618C10.2969 0.707452 10.5495 0.769952 10.8047 0.874118C11.0599 0.978285 11.2786 1.08766 11.4609 1.20224C11.6432 1.31683 11.8594 1.4887 12.1094 1.71787C12.3594 1.94703 12.5469 2.12672 12.6719 2.25693C12.7969 2.38714 12.9844 2.59287 13.2344 2.87412C13.4844 3.15537 13.651 3.33766 13.7344 3.42099ZM23.9688 8.21787L27.2812 13.8897C27.4688 14.2752 27.5339 14.671 27.4766 15.0772C27.4193 15.4835 27.276 15.8689 27.0469 16.2335C26.9115 16.4418 26.7396 16.6345 26.5312 16.8116C26.3229 16.9887 26.125 17.1345 25.9375 17.2491C25.75 17.3637 25.4974 17.4783 25.1797 17.5929C24.862 17.7075 24.6172 17.7908 24.4453 17.8429C24.2734 17.895 24.0052 17.9679 23.6406 18.0616C23.276 18.1554 23.0365 18.2179 22.9219 18.2491C22.5677 17.4991 21.1875 15.2283 18.7812 11.4366L23.6719 8.38974L23.9688 8.21787ZM21.7344 4.68662L23.9531 3.38974L20.5156 9.21787L13.9688 8.90537L16.3281 7.56162C15.974 6.63453 15.5833 5.76995 15.1562 4.96787C14.7292 4.16579 14.3359 3.52256 13.9766 3.03818C13.6172 2.55381 13.2812 2.13714 12.9688 1.78818C12.6562 1.43922 12.4115 1.19704 12.2344 1.06162L11.9688 0.858493L18.2969 0.874118C18.6198 0.842868 18.9219 0.897556 19.2031 1.03818C19.4844 1.17881 19.6875 1.32724 19.8125 1.48349L19.9844 1.71787C20.3906 2.35329 20.974 3.34287 21.7344 4.68662Z" fill="#14AE5C"/>
</svg>
