<svg width="57" height="65" viewBox="0 0 57 65" fill="none" xmlns="http://www.w3.org/2000/svg">
<path d="M6.76875 59.2871C6.86584 60.8342 7.55016 62.2862 8.68239 63.3476C9.81463 64.4089 11.3097 64.9998 12.8632 65H44.1368C45.6903 64.9998 47.1854 64.4089 48.3176 63.3476C49.4498 62.2862 50.1342 60.8342 50.2312 59.2871L52.9286 16.25H4.07143L6.76875 59.2871ZM15.689 36.9688L27.061 25.0022C27.2446 24.8043 27.4671 24.6463 27.7148 24.5383C27.9624 24.4304 28.2297 24.3746 28.5 24.3746C28.7703 24.3746 29.0376 24.4304 29.2852 24.5383C29.5329 24.6463 29.7554 24.8043 29.939 25.0022L41.311 36.9688C42.5935 38.317 41.6851 40.625 39.8707 40.625H32.5714V54.8438C32.5714 55.3825 32.357 55.8992 31.9752 56.2801C31.5934 56.661 31.0756 56.875 30.5357 56.875H26.4643C25.9244 56.875 25.4066 56.661 25.0248 56.2801C24.643 55.8992 24.4286 55.3825 24.4286 54.8438V40.625H17.1293C15.3149 40.625 14.4065 38.317 15.689 36.9688ZM54.9643 4.06252H39.6964L38.5004 1.6885C38.2471 1.18096 37.8568 0.754026 37.3736 0.455731C36.8903 0.157437 36.3332 -0.00038441 35.765 2.22583e-05H21.2223C20.6553 -0.00215252 20.0992 0.15508 19.6177 0.453707C19.1361 0.752333 18.7486 1.18027 18.4996 1.6885L17.3036 4.06252H2.03571C1.49581 4.06252 0.978017 4.27653 0.596247 4.65746C0.214476 5.03839 0 5.55505 0 6.09377L0 10.1563C0 10.695 0.214476 11.2116 0.596247 11.5926C0.978017 11.9735 1.49581 12.1875 2.03571 12.1875H54.9643C55.5042 12.1875 56.022 11.9735 56.4038 11.5926C56.7855 11.2116 57 10.695 57 10.1563V6.09377C57 5.55505 56.7855 5.03839 56.4038 4.65746C56.022 4.27653 55.5042 4.06252 54.9643 4.06252Z" fill="#14AE5C"/>
</svg>
