<?xml version="1.0" encoding="UTF-8"?><svg id="Layer_1" xmlns="http://www.w3.org/2000/svg" viewBox="0 0 131.4 40"><defs><style>.cls-1{fill:#108ee9;fill-rule:evenodd;}</style></defs><path class="cls-1" d="M0,20C0,8.95,8.98,0,20.05,0s20.05,8.95,20.05,20-8.98,20-20.05,20S0,31.05,0,20ZM14.74,15.51c-.45.07-.91.1-1.36.1-.61,0-1.21-.07-1.81-.21-.95-.23-1.81-.64-2.62-1.18-.11-.07-.3-.14-.37-.09-.09.06-.15.24-.15.38-.01.76,0,1.52,0,2.28,0,.94,0,1.87,0,2.81,0,2.01,0,4.02,0,6.03,0,.41.14.75.5.97,1.48.92,3.1,1.33,4.85,1.25,1.36-.06,2.67-.36,3.96-.77,1.43-.46,2.85-.96,4.27-1.44,1.25-.42,2.52-.76,3.83-.88,1.92-.18,3.73.17,5.38,1.19.38.24.54.14.54-.3,0-1.86,0-3.72,0-5.58v-.47c0-1.69,0-3.38,0-5.07,0-.48-.21-.83-.61-1.1-2.17-1.46-4.53-1.65-6.98-.96-1.43.4-2.82.93-4.21,1.45-1.71.63-3.4,1.33-5.22,1.6Z"/><path class="cls-1" d="M53.38,10.4s.02,0,.03,0c.01,0,.02,0,.04,0s.02,0,.04,0c.01,0,.02,0,.04,0h.3-.05c4.98.19,8.96,4.31,8.96,9.39s-4,9.22-8.99,9.38l.08.02h-7.04V10.4h6.6ZM69.67,18.29c.1-4.37,3.62-7.89,7.97-7.89s7.87,3.52,7.97,7.89h0v10.91h-3.99v-4.03h-7.98v4.03h-3.99v-10.91h0ZM73.65,18.45v2.68h7.98v-2.68h0c-.01-2.22-1.79-4.01-3.99-4.01s-3.97,1.8-3.99,4.01h0ZM123.42,10.4c-4.34,0-7.87,3.52-7.97,7.89h0v10.91h3.99v-4.03h7.98v4.03h3.99v-10.91h0c-.1-4.37-3.62-7.89-7.97-7.89ZM119.43,18.45v2.68h7.98v-2.68h0c-.01-2.22-1.79-4.01-3.99-4.01s-3.97,1.8-3.99,4.01h0ZM92.56,18.29h.01c.1-4.37,3.62-7.89,7.97-7.89s7.87,3.52,7.97,7.89h0v10.91h-3.99v-10.75h0c-.01-2.22-1.79-4.01-3.99-4.01s-3.97,1.8-3.99,4.01h0v10.75h-3.99v-10.91ZM50.76,15.19v-.75h3.01c2.78.18,4.98,2.51,4.98,5.36s-2.19,5.17-4.96,5.35h-3.03s0-.74,0-.74h0s0-9.21,0-9.21h0Z"/></svg>