<svg width="356" height="270" viewBox="0 0 356 270" fill="none" xmlns="http://www.w3.org/2000/svg">
<g opacity="0.8">
<path d="M102.026 181.864L102.528 160.625C91.5795 166.507 74.6315 171.335 63.3326 166.816C59.925 165.454 57.0098 163.637 52.6835 157.813C54.9416 163.672 60.6063 169.166 65.2424 170.193C55.9278 171.301 45.6706 177.049 39.2115 185.376C44.6516 179.911 50.5001 177.333 56.5812 175.559C70.1356 171.604 84.3289 171.496 97.2509 178.199C98.9261 179.068 100.697 180.083 102.026 181.864Z" fill="#422818"/>
<path d="M42.0902 154.651C46.7201 154.735 50.3846 158.559 50.2746 163.191C50.1646 167.823 46.3223 171.509 41.6924 171.425C37.0624 171.34 33.3984 167.517 33.508 162.885C33.6179 158.253 37.4602 154.566 42.0902 154.651Z" fill="#3B5513"/>
<path d="M45.3722 131.711C49.9637 131.794 53.5977 135.587 53.4889 140.181C53.3797 144.774 49.5692 148.43 44.9777 148.346C40.3862 148.262 36.7519 144.47 36.8607 139.877C36.9699 135.283 40.7807 131.627 45.3722 131.711Z" fill="#3B5513"/>
<path d="M23.0148 168.347C27.6062 168.43 31.2403 172.222 31.1316 176.816C31.0228 181.41 27.2115 185.066 22.62 184.982C18.0285 184.898 14.3945 181.106 14.5033 176.513C14.6125 171.919 18.4233 168.263 23.0148 168.347Z" fill="#3B5513"/>
<path d="M67.4552 180.428C72.0467 180.512 75.6807 184.304 75.572 188.898C75.4632 193.491 71.6523 197.147 67.0608 197.063C62.4693 196.979 58.8349 193.187 58.9437 188.594C59.0529 184 62.8637 180.344 67.4552 180.428Z" fill="#3B5513"/>
<path d="M42.0669 188.231C47.0211 188.322 50.9421 192.413 50.8245 197.369C50.7069 202.326 46.5956 206.27 41.6414 206.18C36.6872 206.09 32.7662 201.998 32.8838 197.042C33.0011 192.086 37.1127 188.141 42.0669 188.231Z" fill="#3B5513"/>
<path d="M67.0415 145.836C72.2636 145.932 76.3965 150.244 76.2723 155.469C76.1485 160.693 71.8149 164.851 66.5929 164.755C61.3709 164.66 57.2379 160.347 57.3618 155.123C57.4859 149.899 61.8195 145.741 67.0415 145.836Z" fill="#3B5513"/>
<path d="M22.1155 152.293C24.75 152.341 26.835 154.517 26.7725 157.153C26.71 159.789 24.5238 161.886 21.8892 161.838C19.2547 161.79 17.1694 159.615 17.2319 156.979C17.2944 154.343 19.4809 152.245 22.1155 152.293Z" fill="#3B5513"/>
<path d="M26.2748 192.127C28.5322 192.168 30.3186 194.032 30.2649 196.291C30.2113 198.55 28.3376 200.347 26.0806 200.306C23.8228 200.265 22.0364 198.4 22.09 196.142C22.1433 193.883 24.0173 192.086 26.2748 192.127Z" fill="#3B5513"/>
<path d="M30.4678 143.015C32.2202 143.047 33.6075 144.494 33.5658 146.247C33.5241 148.001 32.0696 149.396 30.3171 149.364C28.5643 149.332 27.1774 147.885 27.2191 146.132C27.2608 144.378 28.7153 142.983 30.4678 143.015Z" fill="#3B5513"/>
<path d="M39.4566 176.986C41.0213 177.014 42.2594 178.307 42.2224 179.872C42.1851 181.437 40.8867 182.684 39.322 182.655C37.7577 182.627 36.5193 181.334 36.5566 179.769C36.5935 178.204 37.8919 176.957 39.4566 176.986Z" fill="#3B5513"/>
<path d="M55.5099 178.471C57.0746 178.5 58.3127 179.792 58.2757 181.357C58.2384 182.923 56.9399 184.168 55.3752 184.14C53.8105 184.111 52.5724 182.819 52.6094 181.254C52.6467 179.688 53.9452 178.443 55.5099 178.471Z" fill="#3B5513"/>
<path d="M50.5266 150.725C51.7302 150.747 52.6822 151.741 52.6535 152.945C52.6249 154.149 51.6262 155.107 50.423 155.085C49.2194 155.063 48.267 154.069 48.2957 152.865C48.3243 151.661 49.323 150.703 50.5266 150.725Z" fill="#3B5513"/>
<path d="M56.5179 196.864C58.7754 196.906 60.5618 198.77 60.5081 201.029C60.4545 203.287 58.5813 205.085 56.3238 205.043C54.066 205.002 52.2795 203.138 52.3332 200.879C52.3864 198.621 54.2605 196.823 56.5179 196.864Z" fill="#3B5513"/>
<path d="M61.867 136.289C64.1245 136.331 65.9108 138.195 65.8572 140.453C65.8036 142.712 63.9303 144.509 61.6728 144.468C59.4154 144.427 57.6286 142.562 57.6823 140.304C57.7359 138.046 59.6096 136.248 61.867 136.289Z" fill="#3B5513"/>
<path d="M40.4671 162.142C38.1005 164.703 36.1497 168.683 35.8557 172.165C35.642 174.692 36.248 179.065 37.9652 180.871C30.2189 176.155 19.2905 177.11 12.6354 183.337C5.29511 190.206 3.90359 202.466 9.2739 211.021C14.6442 219.576 26.0653 223.687 35.6971 220.777C29.8527 228.375 32.7413 240.528 40.5246 246.197C48.308 251.865 59.3637 251.565 67.867 247.137C74.9812 243.433 80.7547 236.855 82.5714 229.032C84.3886 221.208 81.824 212.274 75.5205 207.257C78.0643 205.819 80.4168 204.33 81.6256 201.668C82.14 200.535 82.5797 199.085 82.6758 197.843C82.9403 194.419 82.1848 190.422 79.3261 188.284C85.739 178.868 81.3951 164.423 71.4087 158.846C61.4223 153.268 48.1968 153.777 40.4671 162.142Z" fill="#7BBB1B"/>
<path d="M67.7989 198.719C61.8918 197.059 56.3004 193.623 52.2086 189.039C56.9092 196.257 63.4453 202.273 71.0249 206.358C62.6389 209.197 54.8259 213.698 48.1702 219.526C63.6853 210.158 83.6651 208.211 100.781 214.368L100.866 201.145C96.0889 201.949 91.2352 202.306 86.3876 202.213C82.0309 202.129 77.5195 201.63 73.7587 199.411C70.6042 197.55 68.145 194.203 67.858 190.64C67.4354 193.198 67.3237 195.99 67.7989 198.719Z" fill="#422818"/>
<path d="M255.035 182.278L251.996 203.347C263.56 198.84 280.948 196.117 291.614 202C294.831 203.775 297.505 205.94 301.1 212.266C299.561 206.16 294.599 199.997 290.123 198.406C299.496 198.447 310.357 193.988 317.76 186.496C311.71 191.265 305.601 193.112 299.357 194.131C285.439 196.401 271.348 194.767 259.333 186.51C257.776 185.44 256.141 184.213 255.035 182.278Z" fill="#422818"/>
<path d="M311.244 216.654C306.665 216.001 303.489 211.75 304.151 207.159C304.813 202.568 309.062 199.376 313.641 200.028C318.22 200.681 321.396 204.932 320.734 209.523C320.072 214.114 315.823 217.306 311.244 216.654Z" fill="#3B5513"/>
<path d="M305.22 239.026C300.679 238.379 297.53 234.163 298.186 229.61C298.843 225.057 303.056 221.891 307.597 222.538C312.138 223.186 315.288 227.401 314.632 231.954C313.975 236.507 309.762 239.673 305.22 239.026Z" fill="#3B5513"/>
<path d="M331.831 205.379C327.29 204.732 324.14 200.516 324.797 195.963C325.453 191.41 329.667 188.244 334.208 188.891C338.749 189.538 341.898 193.754 341.242 198.307C340.586 202.86 336.372 206.026 331.831 205.379Z" fill="#3B5513"/>
<path d="M289.174 187.982C284.633 187.335 281.484 183.118 282.14 178.565C282.797 174.012 287.01 170.846 291.552 171.493C296.093 172.14 299.242 176.356 298.586 180.909C297.929 185.462 293.715 188.629 289.174 187.982Z" fill="#3B5513"/>
<path d="M315.317 183.324C310.417 182.626 307.019 178.077 307.727 173.164C308.435 168.252 312.982 164.836 317.882 165.534C322.781 166.233 326.18 170.781 325.471 175.694C324.763 180.606 320.217 184.023 315.317 183.324Z" fill="#3B5513"/>
<path d="M285.415 222.37C280.25 221.634 276.668 216.84 277.415 211.661C278.161 206.483 282.954 202.882 288.119 203.619C293.283 204.355 296.865 209.149 296.118 214.327C295.372 219.505 290.579 223.106 285.415 222.37Z" fill="#3B5513"/>
<path d="M330.784 221.419C328.178 221.047 326.371 218.629 326.748 216.016C327.124 213.404 329.542 211.587 332.148 211.958C334.753 212.33 336.56 214.749 336.184 217.361C335.807 219.974 333.389 221.79 330.784 221.419Z" fill="#3B5513"/>
<path d="M331.457 181.371C329.224 181.053 327.676 178.98 327.999 176.742C328.321 174.503 330.393 172.946 332.626 173.264C334.859 173.583 336.407 175.655 336.084 177.894C335.761 180.132 333.69 181.689 331.457 181.371Z" fill="#3B5513"/>
<path d="M321.372 229.61C319.638 229.363 318.436 227.754 318.687 226.016C318.937 224.278 320.546 223.07 322.279 223.317C324.013 223.564 325.214 225.173 324.964 226.911C324.714 228.649 323.105 229.857 321.372 229.61Z" fill="#3B5513"/>
<path d="M316.545 194.796C314.997 194.575 313.924 193.139 314.148 191.588C314.371 190.036 315.807 188.957 317.355 189.177C318.902 189.398 319.976 190.835 319.752 192.386C319.528 193.938 318.092 195.017 316.545 194.796Z" fill="#3B5513"/>
<path d="M300.789 191.369C299.241 191.149 298.168 189.712 298.392 188.161C298.615 186.609 300.051 185.53 301.599 185.751C303.147 185.971 304.22 187.408 303.996 188.96C303.772 190.511 302.336 191.59 300.789 191.369Z" fill="#3B5513"/>
<path d="M302.39 219.517C301.2 219.347 300.374 218.242 300.546 217.049C300.718 215.855 301.823 215.025 303.013 215.195C304.204 215.365 305.029 216.47 304.857 217.663C304.684 218.856 303.58 219.687 302.39 219.517Z" fill="#3B5513"/>
<path d="M302.007 172.99C299.775 172.672 298.226 170.599 298.548 168.361C298.871 166.122 300.943 164.565 303.176 164.884C305.408 165.202 306.957 167.275 306.634 169.513C306.311 171.751 304.24 173.308 302.007 172.99Z" fill="#3B5513"/>
<path d="M289.395 232.469C287.162 232.151 285.614 230.078 285.936 227.84C286.259 225.601 288.33 224.044 290.563 224.363C292.796 224.681 294.344 226.754 294.022 228.992C293.699 231.23 291.628 232.787 289.395 232.469Z" fill="#3B5513"/>
<path d="M323.055 199.576C324.925 196.632 326.131 192.364 325.799 188.883C325.558 186.356 324.182 182.159 322.171 180.687C330.627 183.947 341.199 181.053 346.629 173.732C352.618 165.656 351.798 153.335 344.992 145.871C338.186 138.406 326.226 136.399 317.278 140.986C321.667 132.46 316.658 121.008 307.996 116.818C299.333 112.627 288.519 114.898 280.952 120.778C274.619 125.697 270.118 133.205 269.729 141.234C269.339 149.262 273.455 157.602 280.547 161.416C278.303 163.286 276.256 165.172 275.543 168.01C275.24 169.217 275.066 170.724 275.194 171.965C275.544 175.384 277.001 179.184 280.192 180.779C275.569 191.196 282.418 204.644 293.229 208.351C304.041 212.059 316.95 209.195 323.055 199.576Z" fill="#7BBB1B"/>
<path d="M289.637 168.456C295.741 169.035 301.851 171.419 306.693 175.202C300.782 168.934 293.282 164.178 285.1 161.509C292.838 157.214 299.714 151.385 305.217 144.456C291.637 156.455 272.343 161.943 254.417 158.939L256.695 171.977C261.248 170.332 265.956 169.111 270.738 168.337C275.036 167.641 279.561 167.326 283.654 168.839C287.088 170.109 290.103 172.965 291.022 176.422C290.98 173.828 290.591 171.058 289.637 168.456Z" fill="#422818"/>
<path d="M261.349 129.316C254.182 131.998 247.202 133.829 239.651 134.472L245.252 148.408C267.549 141.143 288.405 121.171 302.503 101.764C291.096 114.571 276.753 123.55 261.349 129.316Z" fill="#422818"/>
<path d="M266.836 127.869L262.91 130.654C262.982 130.476 262.617 130.403 262.594 130.602C262.572 130.801 262.748 130.978 262.904 131.105C271.724 138.259 282.796 138.842 293.02 138.921C295.433 138.939 297.884 138.94 300.111 138.162C288.864 138.896 271.318 135.285 266.836 127.869Z" fill="#422818"/>
<path d="M277.68 122.514C276.565 115.653 279.506 107.782 283.399 103.073C277.306 107.686 273.793 116.089 274.284 124.878L277.68 122.514Z" fill="#422818"/>
<path d="M301.222 114.968C298.67 115.89 296.327 116.32 293.544 116.211C292.403 116.166 290.892 115.874 289.941 115.028L289.832 114.902C289.456 115.399 288.774 116.087 288.376 116.56C290.471 117.669 293.086 117.684 295.226 117.319C297.365 116.954 299.346 116.037 301.222 114.968Z" fill="#422818"/>
<path d="M314.541 133.682C324.247 137.158 331.179 132.489 331.179 132.489L302.252 117.801C302.252 117.801 304.836 130.207 314.541 133.682Z" fill="#558119"/>
<path d="M331.59 131.861L302.787 117.142C302.787 117.142 311.538 113.817 319.76 117.528C328.335 121.397 331.59 131.861 331.59 131.861Z" fill="#558119"/>
<path d="M331.571 132.258C331.524 132.356 331.181 132.473 331.181 132.473L302.261 117.798C302.261 117.798 302.122 117.382 302.176 117.292C302.241 117.182 302.788 117.155 302.788 117.155L331.584 131.864C331.584 131.864 331.623 132.149 331.571 132.258Z" fill="#CDDD6D"/>
<path d="M269.274 85.6713C259.802 81.5943 252.588 85.82 252.588 85.82L280.549 102.292C280.549 102.292 278.747 89.7484 269.274 85.6713Z" fill="#558119"/>
<path d="M252.142 86.4171L279.976 102.912C279.976 102.912 271.031 105.684 263.054 101.465C254.735 97.0652 252.142 86.4171 252.142 86.4171Z" fill="#558119"/>
<path d="M252.184 86.0223C252.237 85.9275 252.587 85.8323 252.587 85.8323L280.542 102.295C280.542 102.295 280.656 102.719 280.596 102.806C280.524 102.911 279.977 102.904 279.977 102.904L252.146 86.4147C252.146 86.4147 252.125 86.1286 252.184 86.0223Z" fill="#CDDD6D"/>
<path d="M303.196 80.071C298.716 89.3437 304.299 98.4211 304.299 98.4211L321.968 71.2787C321.968 71.2787 307.678 70.7983 303.196 80.071Z" fill="#558119"/>
<path d="M304.847 98.8824L322.563 71.8156C322.563 71.8156 327.906 82.7968 323.345 90.5659C318.588 98.6678 304.847 98.8824 304.847 98.8824Z" fill="#558119"/>
<path d="M304.458 98.8329C304.365 98.7754 304.284 98.4202 304.284 98.4202L321.964 71.2689C321.964 71.2689 322.322 71.3186 322.389 71.3761C322.468 71.4441 322.577 71.817 322.577 71.817L304.849 98.8916C304.849 98.8916 304.562 98.8977 304.458 98.8329Z" fill="#CDDD6D"/>
<path d="M138.517 113.887L158.76 107.311C149.652 98.8835 139.597 84.4193 140.209 72.2066C140.393 68.5233 141.166 65.1563 145.271 59.1207C140.463 63.2069 137.104 70.4022 137.634 75.1387C133.569 66.6756 124.812 58.8585 114.846 55.5001C121.775 58.843 126.107 63.5321 129.755 68.7086C137.885 80.2458 142.587 93.6665 140.435 108.143C140.156 110.02 139.77 112.036 138.517 113.887Z" fill="#422818"/>
<path d="M144.668 48.0432C146.085 52.454 143.664 57.1901 139.26 58.6212C134.855 60.0522 130.136 57.6365 128.719 53.2254C127.301 48.8146 129.722 44.0784 134.127 42.6477C138.531 41.2167 143.25 43.6324 144.668 48.0432Z" fill="#3B5513"/>
<path d="M167.324 43.6475C168.729 48.022 166.328 52.7187 161.96 54.1381C157.592 55.5572 152.912 53.1616 151.506 48.7874C150.1 44.4128 152.502 39.7157 156.869 38.2967C161.237 36.8777 165.918 39.2733 167.324 43.6475Z" fill="#3B5513"/>
<path d="M125.538 34.4242C126.943 38.7985 124.542 43.4951 120.174 44.9145C115.806 46.3334 111.126 43.9378 109.72 39.5632C108.314 35.189 110.716 30.4923 115.083 29.0734C119.452 27.654 124.132 30.05 125.538 34.4242Z" fill="#3B5513"/>
<path d="M128.72 80.5528C130.126 84.9274 127.724 89.6237 123.356 91.0431C118.989 92.4621 114.308 90.0665 112.902 85.6923C111.496 81.3178 113.898 76.6211 118.265 75.2021C122.633 73.7826 127.314 76.1786 128.72 80.5528Z" fill="#3B5513"/>
<path d="M113.069 59.012C114.586 63.7316 111.995 68.7993 107.282 70.3306C102.569 71.8618 97.519 69.2768 96.0022 64.5568C94.4855 59.8372 97.0765 54.7695 101.789 53.2383C106.502 51.7074 111.552 54.292 113.069 59.012Z" fill="#3B5513"/>
<path d="M161.131 68.8312C162.73 73.8061 159.999 79.1479 155.031 80.7617C150.064 82.3758 144.741 79.6506 143.142 74.676C141.543 69.7008 144.274 64.3601 149.242 62.746C154.209 61.1322 159.532 63.8563 161.131 68.8312Z" fill="#3B5513"/>
<path d="M140.338 28.3292C141.145 30.8391 139.767 33.5341 137.261 34.3483C134.755 35.1628 132.069 33.788 131.263 31.2781C130.456 28.7682 131.834 26.0735 134.34 25.2594C136.846 24.4452 139.532 25.8193 140.338 28.3292Z" fill="#3B5513"/>
<path d="M104.222 45.32C104.913 47.4705 103.733 49.7799 101.585 50.4776C99.4376 51.1753 97.1361 49.9978 96.445 47.8469C95.754 45.6963 96.9342 43.387 99.0819 42.6893C101.229 41.9916 103.531 43.1695 104.222 45.32Z" fill="#3B5513"/>
<path d="M151.798 33.2251C152.335 34.8949 151.418 36.6877 149.751 37.2292C148.084 37.7711 146.297 36.8563 145.761 35.187C145.224 33.5172 146.141 31.7245 147.808 31.1826C149.475 30.641 151.262 31.5554 151.798 33.2251Z" fill="#3B5513"/>
<path d="M122.779 52.8779C123.258 54.3686 122.44 55.9691 120.951 56.4527C119.463 56.936 117.868 56.1196 117.389 54.629C116.91 53.1384 117.728 51.5379 119.217 51.0547C120.705 50.571 122.3 51.3873 122.779 52.8779Z" fill="#3B5513"/>
<path d="M126.638 68.5984C127.117 70.089 126.298 71.6895 124.81 72.1731C123.322 72.6563 121.727 71.84 121.248 70.3494C120.769 68.8587 121.587 67.2583 123.075 66.775C124.564 66.2914 126.159 67.1077 126.638 68.5984Z" fill="#3B5513"/>
<path d="M151.109 54.7884C151.478 55.9348 150.848 57.1658 149.703 57.5376C148.559 57.9098 147.332 57.2821 146.963 56.1358C146.595 54.9891 147.225 53.7577 148.37 53.3858C149.514 53.014 150.741 53.642 151.109 54.7884Z" fill="#3B5513"/>
<path d="M109.666 75.5719C110.357 77.7224 109.177 80.0318 107.029 80.7295C104.882 81.4272 102.581 80.2496 101.889 78.0988C101.198 75.9482 102.379 73.6388 104.526 72.9412C106.674 72.2435 108.975 73.4214 109.666 75.5719Z" fill="#3B5513"/>
<path d="M168.406 60.8169C169.097 62.9674 167.916 65.2768 165.769 65.9745C163.621 66.6721 161.32 65.4945 160.629 63.3436C159.938 61.1931 161.118 58.8837 163.266 58.1861C165.413 57.4885 167.715 58.6664 168.406 60.8169Z" fill="#3B5513"/>
<path d="M124.04 45.4002C120.568 45.0013 116.202 45.7726 113.224 47.5858C111.064 48.9011 107.907 51.9632 107.477 54.4103C106.652 45.3935 99.3658 37.1516 90.3857 35.4564C80.4805 33.5866 69.7857 39.6829 66.1052 49.0456C62.4247 58.408 65.9288 70.0294 74.0153 76.075C64.4158 75.84 56.3597 85.3216 56.4412 94.9285C56.5227 104.536 63.358 113.265 71.992 117.509C79.2158 121.06 87.9523 121.839 95.3306 118.697C102.709 115.555 108.369 108.229 108.646 100.197C111.32 101.401 113.921 102.419 116.784 101.826C118.003 101.573 119.432 101.074 120.489 100.42C123.402 98.6174 126.167 95.6557 126.182 92.094C137.584 91.7173 146.616 79.7146 145.147 68.3862C143.678 57.0578 135.381 46.703 124.04 45.4002Z" fill="#7BBB1B"/>
<path d="M110.87 89.0579C108.679 83.3144 108.109 76.7787 109.359 70.7759C106.35 78.8229 105.406 87.6422 106.641 96.1648C99.3448 91.0747 91.051 87.4275 82.3798 85.4958C99.1951 92.4856 112.696 107.453 117.957 124.889L128.663 117.16C125.163 113.781 121.975 110.077 119.156 106.112C116.622 102.548 114.329 98.6149 113.871 94.2733C113.487 90.6314 114.715 86.6745 117.415 84.3418C115.102 85.5093 112.785 87.0656 110.87 89.0579Z" fill="#422818"/>
<path d="M88.9767 137.461C95.4804 141.51 101.194 145.928 106.317 151.524L113.932 138.589C94.5551 125.337 65.9966 120.971 42.0125 121.619C59.1249 122.86 74.999 128.76 88.9767 137.461Z" fill="#422818"/>
<path d="M84.4497 133.99L89.0654 135.403C88.8804 135.455 89.0451 135.789 89.2171 135.686C89.3895 135.582 89.4223 135.333 89.4277 135.132C89.7193 123.747 83.4109 114.597 77.2184 106.427C75.7573 104.5 74.2587 102.553 72.2778 101.26C79.7412 109.744 87.6035 125.89 84.4497 133.99Z" fill="#422818"/>
<path d="M73.6375 128.646C68.8915 133.702 60.8782 136.168 54.7854 135.957C62.1413 137.966 70.924 135.629 77.5737 129.891L73.6375 128.646Z" fill="#422818"/>
<path d="M53.2913 114.52C55.5848 115.982 57.3596 117.581 58.9748 119.857C59.6375 120.79 60.3296 122.169 60.2394 123.442L60.2065 123.605C60.831 123.6 61.7942 123.721 62.4141 123.747C62.0128 121.406 60.4255 119.32 58.8269 117.844C57.2285 116.368 55.2886 115.356 53.2913 114.52Z" fill="#422818"/>
<path d="M59.9762 92.4838C56.7983 82.6589 48.855 80.0076 48.855 80.0076L54.8931 111.933C54.8931 111.933 63.1541 102.309 59.9762 92.4838Z" fill="#558119"/>
<path d="M48.1254 80.059L54.0611 111.909C54.0611 111.909 46.0707 106.994 43.9867 98.2015C41.8132 89.0318 48.1254 80.059 48.1254 80.059Z" fill="#558119"/>
<path d="M48.4463 79.8292C48.5525 79.8061 48.8552 80.0073 48.8552 80.0073L54.8934 111.933C54.8934 111.933 54.6484 112.298 54.5437 112.311C54.4168 112.326 54.0614 111.909 54.0614 111.909L48.1252 80.0591C48.1252 80.0591 48.3274 79.8549 48.4463 79.8292Z" fill="#CDDD6D"/>
<path d="M49.6562 157.811C52.215 167.816 59.9772 170.962 59.9772 170.962L55.9428 138.719C55.9428 138.719 47.0975 147.805 49.6562 157.811Z" fill="#558119"/>
<path d="M60.7088 170.957L56.7715 138.796C56.7715 138.796 64.4393 144.204 65.9707 153.111C67.5683 162.399 60.7088 170.957 60.7088 170.957Z" fill="#558119"/>
<path d="M60.3743 171.166C60.2669 171.183 59.9772 170.963 59.9772 170.963L55.9429 138.719C55.9429 138.719 56.21 138.371 56.3155 138.365C56.4428 138.358 56.7718 138.796 56.7718 138.796L60.7091 170.957C60.7091 170.957 60.4947 171.148 60.3743 171.166Z" fill="#CDDD6D"/>
<path d="M24.5639 134.193C34.6353 132.096 38.4102 122.148 38.4102 122.148L6.1521 124.68C6.1521 124.68 14.4926 136.29 24.5639 134.193Z" fill="#558119"/>
<path d="M38.4382 121.413L6.21143 123.862C6.21143 123.862 11.64 112.945 20.5706 111.827C29.8833 110.661 38.4382 121.413 38.4382 121.413Z" fill="#558119"/>
<path d="M38.6309 121.759C38.642 121.867 38.41 122.148 38.41 122.148L6.15192 124.68C6.15192 124.68 5.97267 124.367 5.97764 124.279C5.98299 124.175 6.21154 123.862 6.21154 123.862L38.4387 121.413C38.4387 121.413 38.6187 121.637 38.6309 121.759Z" fill="#CDDD6D"/>
<path d="M223.721 118.314L237.971 134.091C241.916 122.292 250.963 107.136 262.321 102.653C265.746 101.301 269.124 100.617 276.29 101.875C270.61 99.1703 262.693 99.0716 258.602 101.512C264.639 94.3045 268.171 83.0786 267.154 72.5886C266.944 80.2986 264.45 86.1909 261.232 91.6602C254.06 103.85 243.774 113.684 229.728 117.695C227.907 118.215 225.917 118.695 223.721 118.314Z" fill="#422818"/>
<path d="M286.063 96.8239C282.63 99.9405 277.332 99.6835 274.231 96.2495C271.129 92.8159 271.398 87.5057 274.831 84.3891C278.265 81.2728 283.562 81.5298 286.664 84.9634C289.766 88.397 289.496 93.7072 286.063 96.8239Z" fill="#3B5513"/>
<path d="M299.36 115.764C295.955 118.855 290.701 118.6 287.625 115.194C284.549 111.789 284.816 106.523 288.221 103.432C291.625 100.341 296.879 100.597 299.955 104.002C303.031 107.408 302.765 112.673 299.36 115.764Z" fill="#3B5513"/>
<path d="M290.568 73.7114C287.163 76.8023 281.91 76.5473 278.834 73.1418C275.758 69.7366 276.025 64.4704 279.43 61.3795C282.834 58.2891 288.088 58.5441 291.164 61.9492C294.24 65.3547 293.973 70.6206 290.568 73.7114Z" fill="#3B5513"/>
<path d="M250 95.5745C246.596 98.6654 241.342 98.4105 238.266 95.005C235.19 91.5999 235.456 86.3337 238.861 83.2428C242.266 80.1523 247.52 80.4072 250.596 83.8123C253.672 87.2178 253.405 92.4836 250 95.5745Z" fill="#3B5513"/>
<path d="M263.125 72.3925C259.451 75.7272 253.782 75.4522 250.463 71.7779C247.145 68.1036 247.433 62.4218 251.106 59.0867C254.78 55.752 260.449 56.0271 263.768 59.7014C267.086 63.3756 266.799 69.0574 263.125 72.3925Z" fill="#3B5513"/>
<path d="M273.953 120.436C270.081 123.951 264.106 123.661 260.608 119.788C257.109 115.915 257.413 109.926 261.285 106.411C265.157 102.896 271.132 103.186 274.631 107.059C278.129 110.932 277.826 116.921 273.953 120.436Z" fill="#3B5513"/>
<path d="M302.186 84.7702C300.232 86.5435 297.218 86.3975 295.453 84.4435C293.688 82.4896 293.841 79.4679 295.795 77.6945C297.748 75.9208 300.763 76.0672 302.528 78.0212C304.293 79.9752 304.14 82.9969 302.186 84.7702Z" fill="#3B5513"/>
<path d="M271.927 58.6793C270.253 60.199 267.67 60.074 266.158 58.3998C264.645 56.7256 264.776 54.1364 266.45 52.6171C268.124 51.0974 270.708 51.2224 272.22 52.8962C273.732 54.5704 273.601 57.1597 271.927 58.6793Z" fill="#3B5513"/>
<path d="M302.451 97.2787C301.151 98.4586 299.146 98.3612 297.972 97.0612C296.798 95.7612 296.899 93.7513 298.199 92.5718C299.499 91.3919 301.504 91.4893 302.678 92.7889C303.852 94.0889 303.751 96.0989 302.451 97.2787Z" fill="#3B5513"/>
<path d="M272.692 78.7803C271.531 79.8335 269.741 79.7464 268.693 78.5859C267.644 77.4258 267.736 75.6311 268.896 74.5779C270.056 73.5247 271.846 73.6118 272.895 74.7723C273.942 75.9324 273.852 77.7271 272.692 78.7803Z" fill="#3B5513"/>
<path d="M260.005 88.7706C258.845 89.8239 257.055 89.7369 256.006 88.5764C254.958 87.4164 255.049 85.6217 256.209 84.5684C257.369 83.5152 259.16 83.6021 260.208 84.7626C261.256 85.9227 261.165 87.7174 260.005 88.7706Z" fill="#3B5513"/>
<path d="M282.595 105.508C281.703 106.318 280.326 106.251 279.52 105.358C278.713 104.466 278.784 103.086 279.676 102.276C280.568 101.466 281.945 101.533 282.752 102.425C283.558 103.318 283.488 104.698 282.595 105.508Z" fill="#3B5513"/>
<path d="M246.702 76.0919C245.028 77.6115 242.445 77.4861 240.932 75.8119C239.42 74.1376 239.551 71.5484 241.225 70.0288C242.899 68.5092 245.482 68.6346 246.995 70.3088C248.507 71.9831 248.376 74.5723 246.702 76.0919Z" fill="#3B5513"/>
<path d="M284.225 123.819C282.551 125.339 279.968 125.214 278.456 123.539C276.943 121.865 277.074 119.276 278.748 117.757C280.422 116.237 283.005 116.362 284.518 118.036C286.03 119.71 285.899 122.299 284.225 123.819Z" fill="#3B5513"/>
<path d="M284.398 84.2306C283.552 80.836 281.295 77.0038 278.55 74.8303C276.557 73.2531 272.579 71.339 270.134 71.7737C278.295 67.913 283.459 58.2544 281.892 49.2478C280.165 39.3132 270.694 31.3645 260.626 31.1156C250.558 30.8664 240.898 38.1323 238.073 47.7899C234.921 38.7018 223.204 34.3875 214.229 37.7524C205.254 41.1172 199.474 50.5191 198.53 60.0737C197.741 68.0674 200.08 76.5317 205.617 82.3799C211.154 88.2284 220.008 91.0315 227.633 88.5426C227.445 91.4637 227.404 94.2526 228.966 96.736C229.631 97.7931 230.601 98.9629 231.586 99.7311C234.298 101.848 238.045 103.429 241.389 102.224C245.748 112.793 260.17 117.16 270.271 111.904C280.372 106.649 287.161 95.3182 284.398 84.2306Z" fill="#7BBB1B"/>
<path d="M238.865 86.9179C243.481 82.8952 249.41 80.1215 255.478 79.2394C246.874 79.1696 238.272 81.3033 230.715 85.3807C232.923 76.7881 233.429 67.7533 232.192 58.9513C231.548 77.1308 222.258 94.931 207.756 105.839L218.767 113.245C220.705 108.801 223.058 104.54 225.785 100.536C228.236 96.9365 231.119 93.4379 235.03 91.5215C238.31 89.9134 242.452 89.712 245.588 91.4476C243.68 89.676 241.407 88.0335 238.865 86.9179Z" fill="#422818"/>
<path d="M186.022 82.7634C184.496 90.2941 182.351 97.2091 178.902 103.976L193.623 106.664C199.279 83.8148 193.452 55.3966 184.529 33.0283C189.305 49.5787 189.3 66.5789 186.022 82.7634Z" fill="#422818"/>
<path d="M187.694 77.2949L187.974 82.1329C187.862 81.9767 187.606 82.2484 187.763 82.3747C187.92 82.501 188.163 82.4461 188.353 82.3808C199.086 78.7078 205.444 69.5914 210.926 60.9246C212.219 58.8798 213.518 56.7924 214.038 54.4778C208.704 64.451 196.352 77.4569 187.694 77.2949Z" fill="#422818"/>
<path d="M188.934 65.2566C182.567 62.5393 177.485 55.8458 175.569 50.0332C176.244 57.6599 181.472 65.1219 189.136 69.396L188.934 65.2566Z" fill="#422818"/>
<path d="M195.07 41.1917C194.5 43.8595 193.623 46.0854 192.058 48.3965C191.416 49.3442 190.369 50.4743 189.149 50.8309L188.984 50.8566C189.206 51.4431 189.427 52.392 189.618 52.985C191.665 51.7955 193.062 49.5765 193.886 47.559C194.71 45.5415 194.982 43.3631 195.07 41.1917Z" fill="#422818"/>
<path d="M217.968 39.847C226.041 33.446 225.762 25.0436 225.762 25.0436L198.042 41.8039C198.042 41.8039 209.895 46.2481 217.968 39.847Z" fill="#558119"/>
<path d="M225.461 24.3737L197.775 41.0116C197.775 41.0116 199.595 31.7801 207.083 26.7674C214.892 21.5402 225.461 24.3737 225.461 24.3737Z" fill="#51831B"/>
<path d="M225.788 24.5968C225.846 24.689 225.763 25.0436 225.763 25.0436L198.041 41.8039C198.041 41.8039 197.616 41.6999 197.568 41.6055C197.51 41.4911 197.776 41.0117 197.776 41.0117L225.461 24.3742C225.461 24.3742 225.722 24.4936 225.788 24.5968Z" fill="#CDDD6D"/>
<path d="M153.381 52.7804C144.925 58.661 144.678 67.0642 144.678 67.0642L173.39 52.0815C173.39 52.0815 161.838 46.8999 153.381 52.7804Z" fill="#558119"/>
<path d="M144.937 67.7512L173.606 52.889C173.606 52.889 171.215 61.9877 163.428 66.5194C155.308 71.2449 144.937 67.7512 144.937 67.7512Z" fill="#558119"/>
<path d="M144.626 67.5088C144.573 67.4132 144.678 67.0643 144.678 67.0643L173.39 52.0816C173.39 52.0816 173.809 52.2121 173.851 52.3096C173.901 52.4271 173.606 52.8892 173.606 52.8892L144.937 67.7518C144.937 67.7518 144.684 67.6159 144.626 67.5088Z" fill="#CDDD6D"/>
<path d="M166.735 20.9526C172.186 29.7128 182.787 29.8187 182.787 29.8187L169.234 0.309326C169.234 0.309326 161.284 12.1925 166.735 20.9526Z" fill="#558119"/>
<path d="M183.482 29.5902L170.019 0.081543C170.019 0.081543 182.097 1.40927 186.238 9.43398C190.557 17.8022 183.482 29.5902 183.482 29.5902Z" fill="#558119"/>
<path d="M183.226 29.8915C183.128 29.9395 182.786 29.8182 182.786 29.8182L169.234 0.308808C169.234 0.308808 169.464 0.0316699 169.548 0.00556796C169.647 -0.0251405 170.019 0.0811853 170.019 0.0811853L183.482 29.5906C183.482 29.5906 183.335 29.8378 183.226 29.8915Z" fill="#CDDD6D"/>
<path d="M264.575 182.305C264.575 230.737 225.482 270 177.259 270C129.036 270 89.9434 230.737 89.9434 182.305C89.9434 133.872 129.036 94.6095 177.259 94.6095C225.482 94.6095 264.575 133.872 264.575 182.305Z" fill="#3E7A1D"/>
<path d="M89.9434 182.305C89.9434 230.737 129.036 270 177.259 270V94.6095C129.036 94.6095 89.9434 133.872 89.9434 182.305Z" fill="#7BBB1B"/>
<path d="M234.12 223.487C233.16 223.033 232.293 222.373 231.383 221.838C230.722 221.449 229.846 221.434 229.11 221.366C227.37 221.206 225.847 220.899 224.201 220.33C222.861 219.867 221.625 219.283 220.309 218.938C220.451 218.427 220.468 217.822 220.32 217.059C219.902 214.915 217.963 212.81 215.734 213.358C212.111 212.471 208.336 211.47 206.47 207.967C204.921 205.061 201.362 207.162 199.029 207.464C196.925 207.735 195.844 205.573 193.885 205.557C192.086 205.542 190.169 205.474 188.391 205.787C185.826 206.239 184.266 209.006 181.552 209.083C180.842 209.102 180.078 208.861 179.337 208.786C179.105 208.373 178.626 208.139 178.136 208.503C178.055 208.562 177.977 208.603 177.896 208.657C177.33 208.616 176.757 208.605 176.178 208.627C174.377 208.693 172.977 208.665 172.088 206.529C171.837 205.927 172.724 204.425 172.926 203.753C173.23 202.739 172.532 201.297 171.512 200.98C169.644 200.402 167.85 200.841 166.02 199.92C164.584 199.197 166.524 195.874 166.743 194.653C166.826 194.192 166.625 193.587 166.09 193.498C163.611 193.083 162.321 193.565 160.174 194.99C158.878 195.85 157.493 197.029 155.895 197.191C153.25 197.46 151.462 195.638 150.764 193.282C149.683 189.638 150.468 184.941 154.272 183.406C157.083 182.271 160.517 182.648 163.466 182.819C164.019 182.851 164.345 182.363 164.402 181.879C164.755 178.847 171.332 181.804 173.001 182.185C173.685 184.387 175.106 187.646 177.108 187.646C178.358 187.646 178.729 186.231 178.917 185.26C179.379 182.87 176.87 180.996 177.659 179.066C178.015 178.68 178.369 178.293 178.724 177.907C180.768 177.236 182.673 176.368 184.338 174.96C185.937 174.562 187.244 173.502 187.163 171.695C187.78 170.808 188.376 169.904 189.049 169.067C191.134 166.474 194.203 164.932 197.266 163.849C197.703 163.695 198.12 163.193 197.919 162.694C196.988 160.382 201.702 159.134 204.045 158.868C204.068 159.007 204.096 159.151 204.132 159.316C204.212 159.684 204.643 160.056 205.034 160.007C207.687 159.666 209.981 158.368 212.557 157.737C213.713 157.39 213.233 155.637 212.059 155.924C209.446 156.708 208.116 154.472 206.223 153.226C205.324 152.634 204.372 152.254 203.381 151.963C203.967 151.522 204.514 151.083 205.094 150.717C205.957 150.475 206.832 150.276 207.715 150.093C207.924 150.112 208.139 150.144 208.354 150.18C208.383 150.188 208.411 150.195 208.44 150.202C207.989 150.234 207.628 150.709 207.628 151.139C207.628 151.695 208.057 152.02 208.564 152.078C208.899 152.117 209.358 152.35 209.716 152.562C210.758 153.178 211.699 151.554 210.661 150.939C210.41 150.791 210.155 150.668 209.895 150.559C209.924 150.565 209.952 150.573 209.981 150.579C210.673 150.732 211.115 150.213 211.134 149.681C211.709 149.662 212.284 149.647 212.86 149.648C213.832 149.651 214.79 149.731 215.733 149.975C216.105 150.072 216.278 150.25 216.328 150.471C216.293 150.596 216.281 150.736 216.299 150.891C216.055 151.685 214.936 152.713 214.616 153.035C214.009 153.646 214.487 154.583 215.277 154.639C217.573 154.801 219.516 155.979 221.709 156.544C222.504 156.748 223.179 155.887 222.766 155.163C222.193 154.163 221.041 153.497 220.021 152.787C220.006 152.426 219.811 152.063 219.386 151.899C218.908 151.784 218.562 151.505 218.335 151.077C218.949 149.168 219.35 146.929 217.942 145.331C216.143 143.29 213.731 142.471 212.124 140.268C211.622 138.252 210.916 136.296 209.85 134.438C209.505 133.837 208.575 133.819 208.234 134.438C206.992 136.703 205.124 135.308 203.612 133.8C203.595 133.427 203.621 133.039 203.709 132.628C203.82 132.114 203.563 131.631 203.056 131.472C202.671 131.351 202.286 131.255 201.898 131.165C201.459 130.875 201.01 130.605 200.555 130.341C200.486 130.172 200.361 130.024 200.162 129.926C199.522 129.614 198.75 129.187 197.967 128.956C197.645 128.822 197.316 128.707 196.969 128.639C196.604 128.568 196.267 128.727 196.042 128.978C195.953 129.018 195.865 129.065 195.778 129.12C195.193 128.727 194.3 128.985 194.3 129.843V130.508C193.32 131.638 192.507 133.06 192.548 134.419C192.565 134.971 192.91 135.469 193.207 135.905C194.462 137.75 191.667 139.799 190.451 140.808C189.548 141.556 188.738 142.357 188.187 143.398C187.934 143.875 187.74 144.393 187.522 144.886C187.442 145.055 187.361 145.223 187.28 145.392C186.907 146.434 186.121 146.316 184.922 145.035C184.965 142.904 185.441 141.405 183.162 140.423C182.142 139.984 181.044 139.583 179.945 139.149C179.7 139.01 179.44 138.883 179.154 138.778C179.08 138.75 179.006 138.739 178.933 138.735C176.705 137.792 174.579 136.618 173.235 134.589C169.978 129.673 181.839 124.527 185.687 123.547C185.595 123.827 185.482 124.089 185.372 124.3C185.057 124.9 185.439 125.745 186.18 125.713C187.557 125.654 188.788 125.844 190.088 126.276C191.089 126.609 191.768 125.02 190.809 124.559C190.16 124.246 189.622 123.896 189.22 123.452C189.215 123.365 189.199 123.276 189.161 123.182C189.048 122.908 188.944 122.639 188.842 122.368C188.784 122.089 188.821 121.863 188.918 121.651C189.958 122.381 191.468 121.094 192.186 120.518C193.485 119.474 193.256 116.013 195.236 116.022C195.428 116.022 195.59 115.973 195.722 115.892C195.794 115.908 195.865 115.926 195.938 115.944C196.147 116.223 196.534 116.324 196.896 116.251C198.178 116.768 199.146 117.675 198.436 119.081C197.984 119.977 198.869 120.73 199.716 120.366C201.229 119.718 201.755 120.082 201.073 121.453C200.397 122.813 198.889 123.443 197.463 123.536C196.441 123.602 196.149 125.107 197.214 125.382C200.796 126.304 203.615 129.045 207.012 130.451C207.597 130.693 208.069 130.216 208.156 129.683C208.195 129.71 208.235 129.732 208.273 129.76C209.136 130.375 209.872 129.232 209.553 128.474C208.838 126.773 207.573 125.234 207.002 123.49C207.884 124.181 208.663 124.962 209.274 125.993C209.632 126.598 210.533 126.606 210.889 125.993C212.179 123.779 211.082 122.424 209.157 121.151C207.09 119.786 208.647 119.595 207.96 117.948C207.401 116.608 206.553 115.939 205.278 115.238C202.428 113.671 199.565 110.265 196.207 109.894C194.819 109.741 193.476 109.912 192.39 110.441C192.718 109.943 192.643 109.067 191.922 108.958C183.65 107.701 192.511 116.846 187.56 118.047C187.499 117.621 187.433 117.197 187.379 116.771C187.325 116.37 186.85 116.072 186.477 116.081C185.919 116.094 185.084 115.656 184.334 115.265C185.426 112.923 185.931 110.062 188.507 108.98C189.597 108.523 189.22 106.912 188.01 107.168C186.837 107.416 185.678 107.675 184.486 107.831C183.895 107.909 183.713 107.469 183.276 106.854C182.937 106.376 182.255 106.196 181.807 106.664C180.946 107.567 180.136 108.505 179.434 109.538C179.169 109.928 179.326 110.625 179.77 110.824C180.754 111.266 181.571 111.453 182.398 111.373C181.557 112.978 180.155 114.102 178.212 114.474C177.683 114.576 177.468 115.16 177.558 115.63C177.829 117.045 174.615 116.939 172.493 116.932C172.301 116.288 172.117 115.643 171.927 114.998C172.122 115.107 172.357 115.144 172.622 115.093C173.71 114.887 174.801 114.703 175.888 114.497C176.652 114.352 176.696 113.424 176.301 112.927C176.028 112.266 175.932 111.689 175.994 111.185C176.246 110.639 176.561 110.141 177.043 109.633C177.312 109.35 177.364 109.031 177.283 108.753C177.351 108.699 177.423 108.644 177.489 108.589C178.2 108.008 177.437 106.676 176.579 107.019C175.636 107.395 174.892 107.945 174.381 108.601C173.955 108.791 173.502 108.853 173.037 108.647C171.974 108.177 172.181 107.187 171.956 106.321C171.729 105.451 170.956 104.953 170.154 104.728C167.995 104.122 165.498 105.947 163.478 106.726C163.419 106.745 163.358 106.768 163.298 106.789C163.222 106.817 163.144 106.846 163.069 106.87C163.07 106.873 163.071 106.875 163.072 106.877C162.996 106.907 162.924 106.931 162.846 106.965C161.866 107.393 162.569 108.998 163.566 108.682C163.681 108.646 163.792 108.599 163.905 108.559C164.516 108.377 165.121 108.313 165.72 108.355C165.44 109.33 165.51 110.22 165.897 111.051C165.664 111.008 165.431 110.962 165.199 110.896C164.662 110.741 163.948 111.188 164.015 111.802C164.34 114.771 166.786 114.525 169.13 114.454C169.004 114.722 168.877 114.989 168.746 115.253C168.541 115.469 168.349 115.7 168.169 115.949C168.018 115.944 167.869 115.974 167.735 116.048C166.014 115.709 164.366 115.544 162.589 115.784C162.585 115.784 162.58 115.783 162.575 115.782L162.576 115.785C162.492 115.797 162.411 115.803 162.327 115.816C162.216 115.833 162.124 115.869 162.042 115.913C162.034 115.911 162.026 115.909 162.018 115.907C162.009 115.893 161.999 115.88 161.99 115.867C162.19 115.575 162.393 115.282 162.643 115.001C162.915 114.694 163.026 114.23 162.789 113.862C161.708 112.182 160.249 111.472 158.457 111.521C158.355 111.365 158.262 111.203 158.187 111.03C157.968 110.606 157.615 110.493 157.286 110.571C157.271 110.5 157.26 110.43 157.242 110.359C157.118 109.857 156.576 109.577 156.092 109.703C154.131 110.212 152.467 110.309 150.849 110.05C150.682 109.92 150.472 109.837 150.254 109.819C150.031 109.799 149.819 109.788 149.612 109.782C148.729 109.541 147.838 109.196 146.901 108.759C146.876 108.528 146.846 108.297 146.812 108.072C147.586 107.493 146.983 106.145 145.996 106.423C145.776 106.485 145.554 106.547 145.331 106.61C145.108 106.655 144.893 106.72 144.682 106.793C140.85 107.881 136.845 109.15 134.004 112.032C133.823 112.216 133.751 112.46 133.755 112.702C133.365 113.069 132.96 113.412 132.54 113.738C132.262 113.413 131.789 113.26 131.373 113.525C130.289 114.217 129.218 114.93 128.147 115.643C128.018 115.618 127.88 115.621 127.737 115.667C127.32 115.802 127.044 116.052 126.73 116.356C126.291 116.782 126.407 117.342 126.764 117.672C122.558 120.02 118.647 123.222 116.672 127.672C116.661 127.692 116.648 127.71 116.637 127.728C116.64 127.73 116.642 127.731 116.645 127.732C116.612 127.806 116.575 127.878 116.543 127.953C116.33 128.459 116.632 128.863 117.051 129.027C116.666 129.538 116.277 130.047 115.895 130.562C115.172 131.534 116.797 132.469 117.511 131.51C118.353 130.377 119.199 129.268 119.975 128.119C120.295 128.337 120.725 128.357 121.076 127.973C121.205 127.831 121.338 127.695 121.468 127.555C121.759 127.803 122.192 127.878 122.595 127.607C122.885 127.771 123.254 127.82 123.559 127.672C123.908 127.503 124.253 127.331 124.599 127.16C124.751 127.285 124.94 127.364 125.165 127.353C125.231 127.35 125.296 127.351 125.361 127.349C124.864 128.269 126.114 129.07 126.865 128.42C127.003 128.301 127.127 128.174 127.256 128.051C127.319 128.269 127.387 128.488 127.457 128.705C127.408 129.716 127.379 130.727 127.365 131.739C127.364 131.74 127.364 131.742 127.364 131.744C127.169 131.803 126.995 131.946 126.881 132.202C126.847 132.277 126.821 132.352 126.789 132.427L126.786 132.426C126.785 132.43 126.785 132.434 126.784 132.439C126.382 133.365 126.043 134.282 125.747 135.259C125.655 135.564 125.753 135.861 125.942 136.087C125.518 136.249 125.219 136.772 125.302 137.25C125.34 137.663 125.379 138.077 125.417 138.491C125.425 138.842 125.655 139.129 125.946 139.293C125.937 139.345 125.925 139.397 125.916 139.449C125.904 139.455 125.893 139.463 125.88 139.469C125.531 139.639 125.313 140.162 125.45 140.53C125.519 140.712 125.594 140.936 125.668 141.184C125.636 141.43 125.593 141.673 125.565 141.92C125.532 142.215 125.665 142.454 125.868 142.616C125.814 143.345 125.808 144.076 125.857 144.806C125.642 145.309 125.247 145.673 124.571 145.752C123.932 145.826 123.319 146.514 123.763 147.165C126.318 150.918 124.409 154.403 122.456 157.903C121.51 159.6 120.751 161.231 120.214 162.976C119.857 163.084 119.578 163.376 119.627 163.838C119.663 164.176 119.699 164.513 119.737 164.85C119.652 165.262 119.577 165.681 119.517 166.114C119.185 168.51 119.347 171 120.705 173.051C121.472 174.209 122.826 174.838 123.98 175.618C124.651 176.734 125.077 177.912 125.455 179.107C125 183.242 129.473 187.734 131.037 191.15C131.498 192.156 132.977 191.421 132.748 190.426C132.155 187.856 130.573 185.93 129.224 183.721C128.492 182.524 128.036 181.213 127.62 179.883C127.777 179.945 127.95 179.965 128.118 179.945C128.657 180.175 129.175 180.537 129.662 180.962C130.261 182.683 131.306 184.058 132.482 185.342C133.433 187.451 135.334 189.646 137.138 190.653C137.687 191.528 138.16 192.355 138.538 193.245C138.542 193.403 138.545 193.561 138.55 193.715C138.621 195.826 138.703 197.733 140.609 197.454C141.805 198.361 143.492 198.892 144.621 199.305C147.734 200.443 150.322 200.947 153.63 200.998C157.608 201.059 159.922 203.431 163.43 204.769C166.885 206.087 169.272 208.177 172.274 210.177C174.166 211.436 176.17 211.668 178.044 210.754C178.16 210.792 178.286 210.802 178.417 210.783C178.877 210.823 179.332 210.874 179.788 210.944C179.708 211.162 179.719 211.409 179.906 211.658C180.759 212.798 180.887 214.204 180.778 215.62C179.791 216.899 178.225 218.068 177.453 219.095C176.856 219.889 176.552 220.582 176.275 221.522C175.817 223.08 176.839 223.803 175.871 225.539C175.604 226.018 175.787 226.521 176.207 226.824C176.26 226.863 176.313 226.899 176.366 226.937C176.503 227.271 176.803 227.533 177.215 227.516C177.896 227.966 178.569 228.392 179.189 228.86C180.573 230.556 182.217 233.28 182.711 233.915C183.97 235.535 185.538 236.204 187.357 237.046C189.468 238.023 190.28 239.442 190.67 241.535C190.306 242.601 190.204 243.839 190.073 244.784C189.8 246.741 189.711 248.715 189.507 250.677C189.119 251.976 188.73 253.275 188.412 254.596C188.326 254.956 188.271 255.485 188.213 256.088C187.448 257.722 186.722 259.195 186.707 260.962C186.411 261.132 186.277 261.436 186.283 261.747C186.191 261.882 186.121 262.037 186.112 262.228C186.074 262.964 186.094 263.69 186.112 264.426C186.121 264.867 186.394 265.192 186.798 265.332C187.606 265.613 188.295 265.709 189.158 265.68C189.797 265.659 190.18 265.1 190.06 264.491C190.375 263.98 190.689 263.47 191.004 262.959C191.236 262.728 191.456 262.486 191.696 262.264C192.073 261.9 192.019 261.385 191.75 261.037C192.006 260.94 192.229 260.742 192.325 260.441C193.365 259.803 194.188 258.907 195.022 258.013C195.323 258.162 195.692 258.134 195.996 257.788C196.923 256.736 198.063 256.029 199.301 255.471C199.623 255.794 200.13 255.887 200.531 255.432C201.491 254.342 201.798 253.459 203.196 253.03C203.406 253.047 203.617 252.993 203.794 252.852C204.424 252.672 205.044 252.349 205.64 251.941C205.775 251.933 205.913 251.895 206.05 251.809C208.695 250.157 210.816 247.749 213.1 245.617C213.376 245.697 213.694 245.643 213.98 245.38C214.681 244.737 215.31 244.04 215.897 243.312C216.166 243.124 216.442 242.945 216.722 242.774C216.903 242.872 217.129 242.917 217.399 242.873C218.617 242.674 219.635 242.246 220.617 241.667C220.808 241.701 221.016 241.666 221.218 241.522C225.411 238.538 227.013 233.419 231.208 230.418C232.487 229.503 234.037 228.411 234.651 226.898C235.016 226 235.294 224.042 234.12 223.487Z" fill="#E9E8E4"/>
<path d="M190.46 100.957C190.899 101.164 191.022 101.7 191.36 102.026C191.709 102.363 192.105 102.635 192.569 102.792C192.912 102.907 193.257 102.981 193.605 103.023C193.61 103.059 193.612 103.093 193.621 103.129C193.631 103.171 193.649 103.204 193.661 103.244C193.442 103.296 193.249 103.422 193.148 103.658C193.123 103.717 193.098 103.775 193.073 103.834C192.827 103.893 192.576 103.973 192.301 104.097C191.69 104.371 191.197 104.262 190.693 104.098C190.365 103.836 189.9 103.729 189.345 103.762C188.14 103.834 188.139 105.572 189.345 105.641C189.347 105.641 189.349 105.642 189.352 105.642C189.355 105.878 189.407 106.15 189.516 106.358C189.801 106.899 190.223 107.11 190.765 107.34C192.297 107.988 194.358 108.097 195.997 108.222C197.201 108.314 197.192 106.434 195.997 106.343C195.736 106.323 193.95 106.173 192.638 105.924C193.176 105.736 193.721 105.573 194.199 105.721C194.482 105.78 194.724 105.725 194.913 105.604C195.016 105.644 195.118 105.685 195.222 105.716C195.296 105.738 195.425 105.758 195.572 105.779C195.703 105.825 195.844 105.841 195.983 105.833C196.546 105.905 197.207 106.002 197.343 106.2C198.022 107.187 199.63 106.271 198.959 105.252C198.912 105.18 198.89 105.107 198.883 105.034C198.923 105.007 198.964 104.98 199.002 104.948C199.725 104.339 200.422 103.583 200.362 102.737C200.459 102.771 200.563 102.794 200.684 102.794H201.062C201.565 102.794 201.854 102.48 201.937 102.109C202.569 102.111 203.218 101.432 202.814 100.697C202.439 100.014 201.411 99.8482 200.735 99.6455C199.628 99.3135 198.545 98.9834 197.41 98.7608C196.388 98.5596 194.694 98.1535 193.706 98.7669C193.481 98.7339 193.243 98.7197 192.973 98.7512C192.502 98.8061 192.128 99.2133 192.052 99.6394C191.734 99.3596 191.39 99.2601 190.933 99.2068C190.015 99.0997 189.642 100.571 190.46 100.957Z" fill="#E9E8E4"/>
<path d="M173.38 103.064C173.478 103.027 173.572 103.001 173.673 102.978C173.706 102.976 173.905 102.943 173.887 102.946C173.988 102.932 174.084 102.907 174.177 102.874C174.202 102.922 174.221 102.973 174.253 103.017C173.977 103.059 173.715 103.27 173.582 103.497C173.258 104.052 173.596 104.832 174.205 105C174.419 105.059 174.618 105.029 174.807 104.959C174.821 104.966 174.836 104.974 174.851 104.982C174.92 105.018 174.988 105.044 175.056 105.063C175.214 105.242 175.431 105.368 175.701 105.376C176.475 105.399 177.242 105.563 178.018 105.468C178.428 105.417 178.786 105.283 179.132 105.056C179.202 105.01 179.269 104.95 179.335 104.884C179.429 104.916 179.529 104.933 179.632 104.92C179.856 104.89 180.075 104.854 180.296 104.81C181.212 104.629 181.115 103.506 180.48 103.115C180.31 102.702 179.929 102.392 179.421 102.581C178.819 102.803 178.508 103.223 177.993 103.561C177.822 103.673 177.564 103.7 177.278 103.69C177.024 103.259 176.868 102.824 176.636 102.458C176.61 102.388 176.578 102.321 176.538 102.257C177.689 102.202 177.674 100.384 176.486 100.384H176.419H176.305C175.967 100.384 175.727 100.535 175.578 100.748C175.446 100.767 175.315 100.795 175.19 100.84C174.847 100.63 174.395 100.605 173.995 100.692C173.522 100.796 173.059 101.081 172.658 101.347C172.306 101.581 172.113 101.984 172.229 102.408C172.355 102.867 172.902 103.246 173.38 103.064Z" fill="#E9E8E4"/>
<path d="M182.069 104.606C182.082 104.619 182.094 104.632 182.107 104.644C182.36 104.898 182.73 104.964 183.054 104.861C183.116 105.096 183.228 105.319 183.359 105.517C183.674 105.99 184.409 106.187 184.829 105.707C184.844 105.689 184.853 105.67 184.868 105.652C185.049 105.688 185.237 105.668 185.414 105.597C185.33 105.984 185.496 106.401 185.849 106.613C186.322 106.899 186.832 106.935 187.364 106.822C187.863 106.716 188.146 106.137 188.017 105.666C187.876 105.151 187.364 104.904 186.866 105.01C187.034 104.974 186.681 105 186.895 105.031C186.872 105.028 186.858 105.027 186.846 105.026C186.835 105.017 186.819 105.006 186.793 104.99C186.593 104.87 186.361 104.842 186.143 104.886C186.337 104.501 186.364 104.048 186.094 103.666C185.756 103.189 185.24 102.954 184.658 103.002C184.287 103.033 183.962 103.231 183.812 103.547C183.742 103.556 183.676 103.573 183.614 103.596C183.569 103.495 183.512 103.398 183.43 103.315C183.417 103.303 183.405 103.29 183.392 103.277C183.032 102.916 182.43 102.916 182.069 103.277C181.709 103.64 181.709 104.244 182.069 104.606Z" fill="#E9E8E4"/>
<path d="M186.001 102.096C186.456 102.327 187.011 102.221 187.281 101.759C187.317 101.696 187.343 101.628 187.363 101.558C187.358 101.594 187.352 101.63 187.352 101.665C187.352 102.08 187.59 102.364 187.92 102.507C187.906 102.934 188.193 103.302 188.605 103.444C188.624 103.451 188.631 103.453 188.645 103.458C189.02 103.683 189.474 103.699 189.818 103.354C190.002 103.169 190.101 102.876 190.086 102.597C190.12 102.557 190.163 102.528 190.191 102.481C190.441 102.053 190.305 101.435 189.855 101.195C189.351 100.926 188.851 100.792 188.287 100.725C187.871 100.676 187.514 101.025 187.396 101.409C187.441 101.043 187.285 100.646 186.945 100.474C186.77 100.385 186.598 100.294 186.429 100.194C186.345 100.144 186.266 100.09 186.186 100.034C186.315 100.125 186.102 99.9323 186.076 99.8997C185.758 99.4978 185.083 99.5688 184.753 99.8997C184.362 100.292 184.436 100.827 184.753 101.228C185.064 101.622 185.562 101.875 186.001 102.096Z" fill="#E9E8E4"/>
<path d="M179.562 101.888C179.702 101.922 179.848 101.925 179.988 101.963C180.434 102.086 180.905 101.849 181.089 101.434C181.178 101.435 181.267 101.427 181.354 101.394C181.43 101.366 181.506 101.346 181.581 101.318C182.059 101.14 182.379 100.688 182.235 100.163C182.108 99.7008 181.562 99.3277 181.084 99.5058C181.008 99.5338 180.932 99.5538 180.857 99.5818C180.588 99.682 180.373 99.8712 180.258 100.11C180.228 100.105 180.198 100.099 180.167 100.095C180.059 100.05 179.943 100.028 179.82 100.042C179.817 100.042 179.814 100.042 179.811 100.043C179.39 100.09 179.028 100.295 178.909 100.733C178.777 101.214 179.066 101.769 179.562 101.888Z" fill="#E9E8E4"/>
<path d="M233.399 117.543C231.406 114.559 229.422 112.107 226.431 110.059C224.927 109.029 222.636 107.322 220.593 107.212C216.219 103.605 210.057 100.624 204.32 101.435C203.562 101.543 203.504 102.538 203.907 103.006C203.845 103.218 203.782 103.43 203.719 103.642C202.713 103.28 202.071 104.864 202.998 105.359C203.028 105.431 203.058 105.503 203.089 105.576C202.993 105.873 203.043 106.125 203.173 106.317C203.209 106.456 203.275 106.593 203.387 106.722C205.89 109.583 210.604 107.586 213.136 111.025C214.14 112.39 214.19 114.248 215.495 115.438C215.765 115.685 216.104 115.909 216.395 116.125C216.788 116.41 217.171 116.708 217.544 117.021C217.626 117.17 217.705 117.267 217.782 117.322C217.547 117.615 217.474 118.034 217.694 118.376C218.093 118.998 218.853 119.424 219.417 119.966C219.435 120.017 219.457 120.067 219.486 120.118C219.563 120.254 219.64 120.389 219.717 120.525C219.802 120.673 219.908 120.778 220.024 120.852C220.057 120.949 220.084 121.05 220.099 121.157C219.871 121.295 219.692 121.521 219.624 121.78C219.622 121.786 219.617 121.791 219.615 121.797C219.199 122.67 219.263 123.334 219.649 124.239C220.253 125.658 220.694 127.142 221.305 128.553C222.08 130.342 223.3 131.179 224.604 132.56C225.662 133.68 227.98 136.824 229.908 136.169C232.35 135.339 231.475 132.059 231.756 130.035C231.861 129.279 233.892 128.28 234.421 127.501C235.324 126.172 237.002 125.605 237.649 124.157C238.66 121.899 234.397 119.037 233.399 117.543Z" fill="#E9E8E4"/>
<path d="M242.958 130.075C242.913 129.948 242.848 129.828 242.748 129.728C242.364 129.345 241.969 129.113 241.423 129.072C240.913 129.034 240.487 129.528 240.487 130.012C240.487 130.505 240.844 130.845 241.292 130.931C241.337 130.972 241.382 131.014 241.424 131.057C241.604 131.236 241.843 131.326 242.081 131.327C242.154 131.72 242.435 132.061 242.795 132.127C242.834 132.188 242.88 132.246 242.94 132.293C243.892 133.051 244.848 134.049 246.1 134.248C246.799 134.359 247.711 133.612 247.156 132.868C246.267 131.674 244.673 129.4 242.958 130.075Z" fill="#E9E8E4"/>
<path d="M188.638 126.943C187.431 126.943 187.431 128.823 188.638 128.823C189.844 128.823 189.844 126.943 188.638 126.943Z" fill="#E9E8E4"/>
<path d="M191.98 129.607C193.187 129.607 193.187 127.727 191.98 127.727C190.773 127.727 190.773 129.607 191.98 129.607Z" fill="#E9E8E4"/>
<path d="M195.041 126.128C193.834 126.128 193.834 128.007 195.041 128.007C196.247 128.007 196.247 126.128 195.041 126.128Z" fill="#E9E8E4"/>
<path d="M188.54 139.956C188.874 140.212 189.341 140.212 189.73 140.113C190.224 139.987 190.516 139.443 190.383 138.957C190.26 138.508 189.83 138.239 189.387 138.277C188.982 138.066 188.42 138.3 188.204 138.67C187.923 139.153 188.136 139.645 188.54 139.956Z" fill="#E9E8E4"/>
<path d="M257.832 152.2C257.767 152.507 257.833 152.845 258.082 153.045C258.838 153.65 259.041 154.643 259.168 155.561C259.239 156.069 259.877 156.34 260.32 156.217C260.43 156.187 260.516 156.133 260.598 156.076C260.914 155.855 261.029 155.464 260.973 155.062C260.804 153.846 260.397 152.51 259.406 151.716C259.29 151.623 259.162 151.554 259.03 151.508C258.708 151.396 258.359 151.438 258.082 151.716C258.08 151.719 258.078 151.723 258.075 151.725C258.084 151.666 258.09 151.604 258.088 151.536C258.015 149.071 257.004 146.921 256.109 144.669C255.667 143.558 253.856 144.042 254.305 145.169C255.128 147.239 256.149 149.266 256.217 151.536C256.244 152.454 257.326 152.675 257.832 152.2Z" fill="#E9E8E4"/>
<path d="M260.805 164.881C260.579 164.971 260.396 165.168 260.338 165.499C259.83 168.415 260.456 172.059 262.101 174.541C262.593 175.282 263.872 175.05 263.845 174.066C263.802 172.584 263.796 171.106 263.656 169.629C263.511 168.1 262.743 166.745 262.625 165.233C262.55 164.264 261.436 163.999 260.881 164.759C260.851 164.801 260.828 164.841 260.805 164.881Z" fill="#E9E8E4"/>
<path d="M264.485 186.154C264.367 185.113 264.224 184.072 264.165 183.028C264.139 182.555 264.136 182.082 264.144 181.609C264.181 180.869 264.209 180.127 264.223 179.385C264.249 178.687 264.266 177.989 264.23 177.29C264.227 177.238 264.217 177.19 264.207 177.142C264.225 177.038 264.245 176.935 264.261 176.831C264.437 175.646 262.634 175.136 262.456 176.331C261.836 180.501 260.144 184.218 258.589 188.094C257.869 189.887 257.318 191.717 256.921 193.608C256.62 195.037 256.676 196.577 256.451 198.028C256.36 198.122 256.283 198.238 256.229 198.381C255.5 200.331 254.694 202.074 254.781 204.191C254.819 205.134 255.301 206.103 255.651 206.965C256.22 208.363 256.224 210.091 256.26 211.591C256.278 212.339 257.313 212.928 257.857 212.255C258.919 210.94 259.862 209.92 260.584 208.582C260.841 208.107 261.07 207.593 261.266 207.01C262.314 203.879 262.836 200.554 263.453 197.32C264.024 194.325 264.721 191.314 264.649 188.25C264.633 187.551 264.563 186.853 264.485 186.154Z" fill="#E9E8E4"/>
<path d="M186.282 194.069C184.774 193.613 183.343 193.371 182.039 192.424C181.578 192.09 181.131 192.275 180.883 192.637C180.253 192.164 179.627 191.68 178.853 191.46C176.171 190.695 174.05 191.246 171.404 191.38C170.204 191.441 170.198 193.321 171.404 193.259C174.412 193.107 176.823 192.199 179.655 194.026C181.953 195.508 183.283 195.835 186.033 195.914C187.112 195.945 187.275 194.369 186.282 194.069Z" fill="#E9E8E4"/>
<path d="M188.469 198.581C188.799 198.521 189.13 198.41 189.439 198.263C189.487 198.275 189.535 198.288 189.587 198.294C191.626 198.513 193.62 197.932 195.649 197.836C196.597 197.791 196.902 196.606 196.121 196.086C194.289 194.863 191.599 194.913 189.496 195.133C188.74 195.213 188.361 195.99 188.717 196.561C188.485 196.667 188.217 196.724 187.972 196.769C186.786 196.986 187.29 198.797 188.469 198.581Z" fill="#E9E8E4"/>
<path d="M200.003 196.86C199.633 196.997 199.387 196.992 198.997 196.86C198.513 196.697 197.975 197.044 197.846 197.516C197.705 198.031 198.016 198.51 198.499 198.673C199.138 198.888 199.863 198.907 200.501 198.673C200.979 198.496 201.297 198.042 201.154 197.516C201.027 197.054 200.482 196.684 200.003 196.86Z" fill="#E9E8E4"/>
<path d="M206.632 199.39C206.128 199.39 205.688 199.817 205.696 200.33C205.707 200.971 205.851 201.545 206.097 202.131C206.296 202.604 206.981 202.701 207.377 202.468C207.859 202.184 207.912 201.655 207.713 201.183C207.61 200.937 207.572 200.623 207.568 200.33C207.559 199.818 207.148 199.39 206.632 199.39Z" fill="#E9E8E4"/>
<path d="M182.005 196.821C181.893 196.769 181.761 196.738 181.612 196.736C181.599 196.739 181.597 196.738 181.586 196.741C181.556 196.735 181.526 196.728 181.496 196.723C180.992 196.645 180.492 196.843 180.345 197.38C180.212 197.867 180.505 198.408 180.999 198.536C181.112 198.565 181.226 198.583 181.34 198.596C181.916 198.703 182.484 198.838 183.07 198.89C183.579 198.934 184.006 198.429 184.006 197.95C184.006 197.404 183.578 197.055 183.07 197.01C182.711 196.979 182.359 196.896 182.005 196.821Z" fill="#E9E8E4"/>
<path d="M183.111 185.289C183.105 185.286 183.098 185.283 183.092 185.281C183.091 185.28 183.089 185.28 183.088 185.28C182.738 185.15 182.391 185.008 182.044 184.868C181.569 184.679 181.017 185.072 180.893 185.525C180.746 186.06 181.073 186.491 181.546 186.681C181.905 186.825 182.264 186.972 182.626 187.106L182.629 187.106C182.631 187.107 182.63 187.107 182.63 187.107C183.624 187.467 184.295 185.853 183.347 185.389C183.275 185.353 183.199 185.324 183.124 185.294L183.124 185.294C183.12 185.292 183.116 185.29 183.111 185.289Z" fill="#E9E8E4"/>
<path d="M181.186 190.248C181.658 190.525 182.168 190.325 182.466 189.911C182.491 189.875 182.511 189.836 182.528 189.797C182.578 189.72 182.622 189.639 182.652 189.549C182.718 189.344 182.717 189.162 182.68 188.949C182.542 188.142 181.328 188.042 180.97 188.724C180.929 188.803 180.902 188.89 180.85 188.962C180.551 189.378 180.778 190.007 181.186 190.248Z" fill="#E9E8E4"/>
<path d="M187.811 192.573C189.017 192.573 189.017 190.693 187.811 190.693C186.604 190.693 186.604 192.573 187.811 192.573Z" fill="#E9E8E4"/>
<path d="M177.259 107.074C177.259 107.074 176.944 106.877 176.577 107.021C175.633 107.392 174.891 107.947 174.379 108.603C173.954 108.792 173.501 108.854 173.036 108.649C171.972 108.179 172.18 107.188 171.955 106.323C171.728 105.453 170.955 104.954 170.152 104.729C167.993 104.124 165.497 105.949 163.476 106.727C163.417 106.746 163.357 106.77 163.297 106.791C163.22 106.818 163.143 106.848 163.068 106.872C163.069 106.874 163.07 106.877 163.071 106.879C162.995 106.909 162.922 106.932 162.844 106.967C161.864 107.395 162.567 109 163.565 108.684C163.68 108.647 163.791 108.601 163.904 108.561C164.515 108.378 165.12 108.315 165.719 108.357C165.438 109.331 165.509 110.222 165.895 111.052C165.662 111.01 165.43 110.964 165.198 110.898C164.661 110.743 163.947 111.189 164.014 111.804C164.339 114.773 166.785 114.527 169.129 114.455C169.003 114.723 168.876 114.991 168.744 115.255C168.54 115.471 168.347 115.702 168.168 115.951C168.016 115.946 167.867 115.976 167.734 116.05C166.013 115.711 164.365 115.546 162.588 115.785C162.583 115.785 162.579 115.784 162.574 115.784V115.786C162.491 115.799 162.41 115.805 162.326 115.818C162.215 115.835 162.123 115.871 162.04 115.915C162.032 115.913 162.024 115.911 162.016 115.909C162.008 115.895 161.998 115.882 161.988 115.869C162.189 115.577 162.392 115.284 162.642 115.003C162.914 114.696 163.025 114.232 162.788 113.864C161.706 112.184 160.247 111.474 158.456 111.523C158.354 111.366 158.261 111.205 158.186 111.031C157.966 110.608 157.614 110.495 157.284 110.572C157.27 110.502 157.259 110.432 157.241 110.361C157.116 109.859 156.575 109.579 156.09 109.705C154.129 110.214 152.466 110.311 150.847 110.052C150.68 109.922 150.471 109.839 150.252 109.821C150.03 109.801 149.818 109.79 149.611 109.783C148.727 109.543 147.837 109.198 146.9 108.76C146.875 108.529 146.844 108.299 146.811 108.074C147.584 107.494 146.982 106.147 145.995 106.425C145.775 106.487 145.552 106.549 145.329 106.612C145.106 106.657 144.891 106.722 144.68 106.795C140.848 107.882 136.844 109.151 134.003 112.034C133.822 112.218 133.749 112.462 133.754 112.704C133.363 113.071 132.958 113.414 132.539 113.74C132.26 113.415 131.788 113.262 131.372 113.527C130.287 114.219 129.216 114.932 128.146 115.645C128.016 115.62 127.879 115.623 127.735 115.669C127.318 115.804 127.042 116.054 126.729 116.358C126.289 116.783 126.406 117.344 126.762 117.673C122.556 120.022 118.646 123.224 116.671 127.674C116.66 127.694 116.647 127.712 116.636 127.73C116.639 127.732 116.641 127.733 116.644 127.734C116.611 127.808 116.573 127.88 116.542 127.955C116.329 128.461 116.63 128.865 117.049 129.029C116.665 129.54 116.276 130.049 115.894 130.563C115.171 131.536 116.796 132.471 117.509 131.512C118.352 130.378 119.198 129.27 119.974 128.121C120.294 128.339 120.723 128.358 121.074 127.975C121.203 127.833 121.336 127.696 121.467 127.557C121.757 127.805 122.19 127.88 122.593 127.608C122.884 127.772 123.252 127.822 123.557 127.674C123.906 127.505 124.252 127.333 124.598 127.162C124.749 127.286 124.939 127.366 125.163 127.355C125.229 127.352 125.294 127.353 125.36 127.351C124.862 128.271 126.113 129.072 126.864 128.422C127.001 128.303 127.125 128.176 127.254 128.052C127.318 128.271 127.385 128.489 127.455 128.707C127.406 129.718 127.378 130.729 127.364 131.74C127.363 131.742 127.363 131.744 127.362 131.746C127.167 131.804 126.993 131.948 126.879 132.203C126.846 132.279 126.82 132.354 126.787 132.429L126.785 132.428C126.784 132.432 126.783 132.436 126.783 132.44C126.381 133.367 126.041 134.284 125.746 135.261C125.654 135.566 125.751 135.863 125.94 136.088C125.516 136.251 125.217 136.773 125.3 137.251C125.339 137.665 125.377 138.079 125.416 138.493C125.424 138.843 125.653 139.13 125.945 139.295C125.936 139.347 125.923 139.399 125.915 139.451C125.902 139.457 125.891 139.464 125.879 139.471C125.529 139.641 125.311 140.164 125.449 140.532C125.517 140.714 125.592 140.937 125.667 141.186C125.635 141.432 125.592 141.674 125.564 141.922C125.531 142.217 125.663 142.456 125.866 142.618C125.813 143.347 125.807 144.078 125.855 144.808C125.64 145.311 125.245 145.674 124.57 145.754C123.931 145.828 123.318 146.516 123.762 147.167C126.316 150.92 124.408 154.405 122.455 157.905C121.508 159.602 120.749 161.233 120.212 162.978C119.856 163.085 119.577 163.378 119.626 163.84C119.661 164.178 119.698 164.515 119.735 164.851C119.651 165.264 119.576 165.683 119.516 166.116C119.183 168.512 119.345 171.001 120.704 173.053C121.47 174.21 122.825 174.84 123.979 175.62C124.65 176.736 125.076 177.914 125.453 179.109C124.998 183.244 129.472 187.736 131.036 191.152C131.496 192.158 132.975 191.423 132.746 190.428C132.153 187.858 130.571 185.931 129.222 183.723C128.491 182.525 128.035 181.215 127.618 179.885C127.776 179.946 127.948 179.967 128.116 179.947C128.656 180.176 129.174 180.538 129.66 180.964C130.26 182.684 131.304 184.06 132.48 185.344C133.431 187.452 135.332 189.648 137.136 190.655C137.685 191.53 138.159 192.357 138.537 193.247C138.54 193.405 138.544 193.562 138.549 193.717C138.62 195.828 138.701 197.735 140.607 197.455C141.804 198.362 143.491 198.894 144.62 199.307C147.733 200.445 150.32 200.949 153.628 201C157.607 201.061 159.921 203.433 163.428 204.771C166.884 206.088 169.271 208.179 172.273 210.179C173.902 211.263 175.615 211.581 177.256 211.065V208.63C176.898 208.619 176.539 208.615 176.176 208.629C174.375 208.695 172.976 208.667 172.087 206.531C171.836 205.929 172.723 204.427 172.924 203.755C173.229 202.741 172.531 201.298 171.511 200.982C169.642 200.403 167.849 200.843 166.018 199.922C164.583 199.199 166.523 195.876 166.742 194.655C166.825 194.194 166.624 193.589 166.089 193.5C163.609 193.084 162.32 193.567 160.172 194.992C158.877 195.851 157.492 197.031 155.894 197.193C153.249 197.462 151.461 195.64 150.763 193.283C149.682 189.64 150.466 184.943 154.27 183.408C157.082 182.272 160.516 182.65 163.465 182.821C164.018 182.853 164.344 182.365 164.4 181.881C164.754 178.849 171.331 181.806 173 182.187C173.683 184.389 175.105 187.648 177.107 187.648C177.161 187.648 177.205 187.631 177.256 187.626V137.958C175.669 137.137 174.235 136.101 173.234 134.59C171.524 132.01 173.981 129.368 177.256 127.297V116.371C176.431 117.001 174.137 116.94 172.492 116.934C172.299 116.29 172.115 115.645 171.926 115C172.12 115.109 172.355 115.146 172.621 115.095C173.708 114.889 174.799 114.705 175.887 114.499C176.651 114.354 176.694 113.426 176.3 112.928C176.027 112.268 175.931 111.691 175.993 111.187C176.244 110.641 176.56 110.143 177.042 109.635C177.149 109.523 177.259 109.286 177.259 109.286V108.749V107.074Z" fill="#FEFEFE"/>
<path d="M175.869 225.541C175.602 226.02 175.786 226.524 176.205 226.827C176.258 226.865 176.311 226.901 176.364 226.939C176.501 227.274 176.802 227.535 177.213 227.518C177.228 227.528 177.242 227.537 177.256 227.547V219.384C176.792 220.062 176.516 220.7 176.274 221.525C175.815 223.082 176.837 223.805 175.869 225.541Z" fill="#FEFEFE"/>
<path d="M173.378 103.066C173.476 103.029 173.571 103.002 173.671 102.98C173.704 102.977 173.903 102.945 173.885 102.948C173.986 102.934 174.083 102.909 174.175 102.876C174.201 102.924 174.22 102.975 174.251 103.019C173.976 103.061 173.713 103.272 173.58 103.499C173.256 104.055 173.594 104.834 174.203 105.002C174.417 105.061 174.616 105.031 174.804 104.961C174.819 104.968 174.834 104.976 174.849 104.984C174.918 105.02 174.986 105.046 175.054 105.065C175.211 105.244 175.43 105.369 175.699 105.378C176.22 105.393 176.737 105.468 177.256 105.489V103.654C177.015 103.235 176.859 102.815 176.634 102.46C176.608 102.39 176.577 102.323 176.536 102.259C176.882 102.243 177.121 102.065 177.256 101.827C177.429 101.522 177.43 101.116 177.256 100.812C177.114 100.564 176.856 100.386 176.484 100.386H176.417H176.304C175.965 100.386 175.725 100.536 175.576 100.749C175.444 100.769 175.314 100.797 175.189 100.842C174.846 100.632 174.393 100.607 173.993 100.694C173.52 100.797 173.057 101.083 172.657 101.349C172.304 101.582 172.111 101.986 172.227 102.41C172.353 102.869 172.9 103.248 173.378 103.066Z" fill="#FEFEFE"/>
<path d="M171.403 191.382C170.203 191.443 170.197 193.323 171.403 193.261C173.533 193.153 175.364 192.671 177.256 193.044V191.152C175.275 190.918 173.503 191.276 171.403 191.382Z" fill="#FEFEFE"/>
</g>
</svg>
