<svg width="84" height="84" viewBox="0 0 84 84" fill="none" xmlns="http://www.w3.org/2000/svg">
<path d="M40.6157 11.4065C41.0742 11.3855 41.5357 11.375 42 11.375C48.0428 11.375 53.676 13.125 58.422 16.1455C54.922 21.5145 50.7237 25.7092 48.559 27.7078C46.858 29.2758 46.8615 31.878 48.3088 33.5002C50.7218 36.1805 52.3054 39.5033 52.8675 43.0658C53.4835 42.7239 54.1088 42.4054 54.7435 42.1102C61.3462 39.0303 69.5555 37.9837 76.8495 38.7327C75.201 20.9352 60.228 7 42 7C22.6695 7 7 22.6695 7 42C7 61.3305 22.6695 77 42 77H42.301C42.3722 76.7935 42.4585 76.5911 42.56 76.3927C43.2437 75.0336 43.9448 73.7398 44.6635 72.5113C43.7777 72.5867 42.889 72.6247 42 72.625C33.656 72.625 26.0925 69.2878 20.5678 63.875C20.5678 63.812 20.5648 63.7484 20.559 63.6842C20.1302 58.7685 20.4872 55.9265 21.098 54.2885C21.644 52.8185 22.3825 52.3232 23.163 52.0433C23.632 51.8735 24.1693 51.7685 24.8342 51.6775L25.4695 51.5988C25.9595 51.5392 26.523 51.471 26.999 51.3887C28.5548 51.114 30.583 50.4823 31.71 48.2282C32.6673 46.3138 32.5972 44.2855 32.34 42.5967C32.2105 41.7393 32.018 40.8905 31.8378 40.1222L31.7677 39.816C31.6103 39.1423 31.4668 38.5385 31.3583 37.947C31.0993 36.54 31.136 35.714 31.3792 35.1768C31.5595 34.7743 32.0478 34.1198 33.8555 33.6017C37.9383 32.4363 40.8258 30.7142 42.6003 28.4445C44.415 26.1205 44.8577 23.485 44.5602 20.9615C44.2663 18.4957 43.2653 16.0843 42.133 13.9755C41.6535 13.083 41.1355 12.2203 40.6157 11.4065ZM78.6608 42.4987C71.4105 41.3262 62.8285 42.2012 56.2222 45.2812C52.9042 46.83 49.9678 48.9912 48.0008 51.8543C46.0023 54.7645 45.087 58.2873 45.6785 62.3193C45.9572 64.3098 46.5801 66.2368 47.5195 68.0138C50.7756 63.2172 54.7272 58.9318 59.2445 55.2983C60.7121 54.1183 62.2465 53.0239 63.84 52.0205C64.4381 51.646 65.0486 51.2917 65.6705 50.9582L65.702 50.9443L65.7108 50.939L65.7178 50.9355C66.132 50.7312 66.6101 50.699 67.048 50.8458C67.4859 50.9926 67.848 51.3066 68.0554 51.7193C68.2628 52.1319 68.2986 52.6099 68.1551 53.0488C68.0116 53.4878 67.7003 53.8523 67.2892 54.0627L67.2735 54.0697C67.1467 54.1354 67.0213 54.2037 66.8973 54.2745C66.6225 54.4268 66.2148 54.6648 65.6933 54.9885C64.2162 55.9198 62.794 56.9353 61.4338 58.03C56.7934 61.7663 52.7894 66.2301 49.5775 71.2477C49.5367 71.3108 49.4929 71.3708 49.4462 71.428C48.0707 73.5333 46.8157 75.715 45.6873 77.9625C45.582 78.168 45.5185 78.3924 45.5004 78.6226C45.4822 78.8528 45.5098 79.0843 45.5816 79.3038C45.6533 79.5233 45.7678 79.7264 45.9185 79.9015C46.0691 80.0765 46.2528 80.22 46.4592 80.3237C46.6655 80.4274 46.8903 80.4892 47.1207 80.5056C47.351 80.522 47.5823 80.4927 47.8013 80.4193C48.0202 80.3458 48.2225 80.2298 48.3964 80.0779C48.5703 79.926 48.7124 79.7411 48.8145 79.534C49.8596 77.4524 51.0193 75.4304 52.2882 73.4772C53.7838 74.5635 55.4361 75.4156 57.1883 76.0042C59.857 76.9037 62.6535 77.1855 65.1805 76.8792C67.6795 76.58 70.098 75.6805 71.806 74.0267C74.0338 71.8672 75.3375 69.8355 76.0655 67.6865C76.7742 65.59 76.8792 63.5267 76.9458 61.5177L76.9668 60.8843C77.084 57.0605 77.2223 52.535 80.3145 45.542C80.4499 45.236 80.5134 44.903 80.4999 44.5687C80.4865 44.2344 80.3965 43.9076 80.237 43.6134C80.0774 43.3193 79.8525 43.0657 79.5795 42.8722C79.3066 42.6786 78.9928 42.5503 78.6625 42.497" fill="#14AE5C"/>
</svg>
