<svg width="73" height="73" viewBox="0 0 73 73" fill="none" xmlns="http://www.w3.org/2000/svg">
<path d="M40.1409 23.0315L58.0958 5.07659C58.7378 4.41449 59.5051 3.88673 60.353 3.52401C61.2009 3.16129 62.1125 2.97087 63.0347 2.96383C63.9569 2.95679 64.8713 3.13327 65.7246 3.483C66.5779 3.83274 67.3532 4.34873 68.0052 5.00094C68.6572 5.65316 69.173 6.42856 69.5224 7.28201C69.8719 8.13546 70.0481 9.0499 70.0408 9.9721C70.0335 10.8943 69.8428 11.8058 69.4798 12.6536C69.1168 13.5014 68.5888 14.2685 67.9265 14.9103L49.9746 32.8622C48.9263 33.9082 47.6147 34.6512 46.1786 35.0127L40.6123 36.4027C40.0583 36.5417 39.4778 36.5347 38.9272 36.3826C38.3767 36.2305 37.8749 35.9383 37.4709 35.5345C37.0669 35.1308 36.7743 34.6293 36.6218 34.0789C36.4692 33.5285 36.4618 32.9479 36.6004 32.3938L37.9935 26.8275C38.3524 25.3888 39.0945 24.0779 40.1409 23.0315ZM37.9904 20.8811L51.6657 7.20575C50.5497 6.4711 49.2424 6.08079 47.9062 6.08338H25.0937C23.2787 6.08338 21.5379 6.80441 20.2545 8.08787C18.971 9.37132 18.25 11.1121 18.25 12.9271V60.073C18.25 61.888 18.971 63.6288 20.2545 64.9122C21.5379 66.1957 23.2787 66.9167 25.0937 66.9167H47.9062C49.7213 66.9167 51.4621 66.1957 52.7455 64.9122C54.029 63.6288 54.75 61.888 54.75 60.073V32.3877L52.125 35.0127C50.6874 36.4481 48.888 37.4677 46.9177 37.9631L41.3515 39.3531C36.6977 40.5181 32.488 36.3054 33.65 31.6577L35.043 26.0884C35.5358 24.1174 36.5548 22.3168 37.9935 20.8811M40.3021 54.75C40.9071 54.75 41.4874 54.9904 41.9152 55.4182C42.343 55.846 42.5833 56.4263 42.5833 57.0313C42.5833 57.6363 42.343 58.2166 41.9152 58.6444C41.4874 59.0722 40.9071 59.3125 40.3021 59.3125H32.6979C32.0929 59.3125 31.5126 59.0722 31.0848 58.6444C30.657 58.2166 30.4167 57.6363 30.4167 57.0313C30.4167 56.4263 30.657 55.846 31.0848 55.4182C31.5126 54.9904 32.0929 54.75 32.6979 54.75H40.3021Z" fill="#14AE5C"/>
</svg>
